HIERARCHY
ROOT Hips
{
	OFFSET 0.00000 0.00000 0.00000
	CHANNELS 6 Xposition Yposition Zposition Zrotation Yrotation Xrotation 
	JOINT LHipJoint
	{
		OFFSET 0 0 0
		CHANNELS 3 Zrotation Yrotation Xrotation
		JOINT LeftHip
		{
			OFFSET 1.62964 -1.40469 0.78906
			CHANNELS 3 Zrotation Yrotation Xrotation
			JOINT LeftKnee
			{
				OFFSET 2.29640 -6.30932 0.00000
				CHANNELS 3 Zrotation Yrotation Xrotation
				JOINT LeftAnkle
				{
					OFFSET 2.29451 -6.30412 0.00000
					CHANNELS 3 Zrotation Yrotation Xrotation
					JOINT LeftToe
					{
						OFFSET 0.03611 -0.09921 1.56387
						CHANNELS 3 Zrotation Yrotation Xrotation
						End Site
						{
							OFFSET 0.00000 -0.00000 0.80291
						}
					}
				}
			}
		}
	}
	JOINT RHipJoint
	{
		OFFSET 0 0 0
		CHANNELS 3 Zrotation Yrotation Xrotation
		JOINT RightHip
		{
			OFFSET -1.73712 -1.40469 0.78906
			CHANNELS 3 Zrotation Yrotation Xrotation
			JOINT RightKnee
			{
				OFFSET -2.28137 -6.26801 0.00000
				CHANNELS 3 Zrotation Yrotation Xrotation
				JOINT RightAnkle
				{
					OFFSET -2.28681 -6.28298 0.00000
					CHANNELS 3 Zrotation Yrotation Xrotation
					JOINT RightToe
					{
						OFFSET -0.15927 -0.43759 1.61103
						CHANNELS 3 Zrotation Yrotation Xrotation
						End Site
						{
							OFFSET -0.00000 -0.00000 0.84630
						}
					}
				}
			}
		}
	}
	JOINT lowerback
	{
		OFFSET 0 0 0
		CHANNELS 3 Zrotation Yrotation Xrotation
		JOINT Chest
		{
			OFFSET -0.04227 2.04338 -0.00225
			CHANNELS 3 Zrotation Yrotation Xrotation
			JOINT Chest2
			{
				OFFSET -0.02148 2.04482 -0.04273
				CHANNELS 3 Zrotation Yrotation Xrotation
				JOINT lowerneck
				{
					OFFSET 0 0 0
					CHANNELS 3 Zrotation Yrotation Xrotation
					JOINT Neck
					{
						OFFSET 0.09180 1.44629 0.19359
						CHANNELS 3 Zrotation Yrotation Xrotation
						JOINT Head
						{
							OFFSET 0.00887 1.40645 0.14750
							CHANNELS 3 Zrotation Yrotation Xrotation
							End Site
							{
								OFFSET -0.00669 1.50671 0.03707
							}
						}
					}
				}
				JOINT LeftCollar
				{
					OFFSET 0 0 0
					CHANNELS 3 Zrotation Yrotation Xrotation
					JOINT LeftShoulder
					{
						OFFSET 2.17674 1.86763 -0.06520
CHANNELS 3 Zrotation Xrotation Yrotation
						JOINT LeftElbow
						{
OFFSET 0 -4.657760 0.000000
CHANNELS 3 Zrotation Xrotation Yrotation
							JOINT LeftWrist
							{
OFFSET 0 -3.555390 0.000000
CHANNELS 3 Zrotation Xrotation Yrotation
								JOINT lhand
								{
									OFFSET 0 0 0
CHANNELS 3 Zrotation Xrotation Yrotation
									JOINT LFingers
									{
OFFSET 0 -0.707260 0.000000
CHANNELS 3 Zrotation Xrotation Yrotation
										End Site
										{
OFFSET 0 -0.570220 0.000000
										}
									}
								}
								JOINT LThumb
								{
OFFSET 0 0.000000 0.000000
CHANNELS 3 Zrotation Xrotation Yrotation
									End Site
									{
OFFSET 0 -0.578920 0.578920
									}
								}
							}
						}
					}
				}
				JOINT RightCollar
				{
					OFFSET 0 0 0
					CHANNELS 3 Zrotation Yrotation Xrotation
					JOINT RightShoulder
					{
						OFFSET -2.80694 1.55459 -0.32496
CHANNELS 3 Zrotation Xrotation Yrotation
						JOINT RightElbow
						{
OFFSET 0 -4.719250 -0.000000
CHANNELS 3 Zrotation Xrotation Yrotation
							JOINT RightWrist
							{
OFFSET 0 -3.569900 0.000000
CHANNELS 3 Zrotation Xrotation Yrotation
								JOINT rhand
								{
									OFFSET 0 0 0
CHANNELS 3 Zrotation Xrotation Yrotation
									JOINT RFingers
									{
OFFSET 0 -0.507760 0.000000
CHANNELS 3 Zrotation Xrotation Yrotation
										End Site
										{
OFFSET 0 -0.409370 0.000000
										}
									}
								}
								JOINT RThumb
								{
OFFSET 0 0.000000 0.000000
CHANNELS 3 Zrotation Xrotation Yrotation
									End Site
									{
OFFSET 0 -0.415620 0.415620
									}
								}
							}
						}
					}
				}
			}
		}
	}
}
MOTION
Frames: 6
Frame Time: 0.008333333333333333
9.129700 16.322900 31.637400 178.186000 -2.238500 -157.152000 0.000000 0.000000 0.000000 -19.259400 -17.991700 -18.209500 0.380300 3.960500 10.965500 0.277700 -1.569300 -9.529800 2.966900 -10.641300 -31.079500 0.000000 0.000000 0.000000 18.039000 13.868400 -18.060600 -0.281100 -3.409700 9.421600 -1.318100 0.291200 -21.624100 -2.658400 10.120400 -29.367500 -6.202800 -1.864400 -26.293000 -0.549700 -1.010600 -1.154400 2.516500 -1.037300 13.525000 -4.605500 0.068400 -0.277300 7.123800 -0.735600 8.973400 3.157500 -0.464300 3.013400 -0.000000 0.000000 0.000000 4.198900 -0.197200 -1.065400 6.142400 -10.499400 0.564900 18.962400 22.648600 12.002100 0.000000 0.000000 0.000000 -7.125000 0.000000 0.000000 -5.738000 17.349800 -3.785000 -0.000000 0.000000 0.000000 0.783000 4.826800 4.872100 -14.733200 -23.773100 -3.117600 -13.249500 14.996500 57.021500 0.000000 0.000000 0.000000 7.125000 0.000000 -0.000000 83.156200 76.793600 -69.504100
9.140114 16.323370 31.629649 178.171907 -2.412633 -157.297633 0.000000 0.000000 0.000000 -19.201538 -18.202398 -17.880339 0.377090 3.943979 10.919070 0.286156 -1.546672 -9.681540 2.760744 -10.295070 -29.939728 0.000000 0.000000 0.000000 18.113147 14.239294 -17.521054 -0.265127 -3.311750 9.148030 -1.300405 -0.388106 -21.711636 -2.619956 10.052673 -29.147563 -6.480442 -1.975269 -26.252364 -0.472577 -1.066739 -1.056685 2.744110 -1.082008 13.631328 -4.473256 0.042562 -0.268531 7.070088 -0.754548 8.835988 3.110757 -0.468058 2.963916 0.000000 0.000000 0.000000 4.236874 -0.235566 -1.848841 6.186873 -10.573469 0.573043 18.807372 21.941029 11.982291 0.000000 0.000000 0.000000 -7.125000 0.000000 0.000000 -5.845815 17.383233 -3.852492 0.000000 0.000000 0.000000 0.695072 4.672476 4.293562 -14.672598 -23.687991 -3.093250 -9.867141 11.407828 55.124281 0.000000 0.000000 0.000000 7.125000 0.000000 0.000000 75.936027 75.362798 -60.873639
9.133832 16.314898 31.637574 178.228556 -2.261122 -156.901092 0.000000 0.000000 0.000000 -19.020641 -18.360293 -18.429691 0.387462 3.996843 11.067777 0.290424 -1.436436 -9.778383 2.700035 -10.192931 -29.603709 0.000000 0.000000 0.000000 17.986951 14.453704 -18.151370 -0.279716 -3.400052 9.394788 -1.309026 -0.249907 -21.732844 -2.606244 10.028467 -29.069056 -6.430459 -1.893943 -26.604888 -0.466877 -0.974092 -1.146297 2.751851 -1.046351 13.706698 -4.400266 0.020006 -0.259478 7.049654 -0.771458 8.710688 3.087273 -0.472213 2.919526 0.000000 0.000000 0.000000 4.240156 -0.273648 -2.270192 6.223309 -10.634069 0.579771 18.659870 21.602395 12.067860 0.000000 0.000000 0.000000 -7.125000 0.000000 0.000000 -5.950008 17.306024 -3.932152 0.000000 0.000000 0.000000 0.680887 4.678541 4.560827 -14.791117 -23.853991 -3.141170 -8.561228 10.377106 56.189776 0.000000 0.000000 0.000000 7.125000 0.000000 0.000000 79.970654 75.003552 -64.423351
9.125474 16.305055 31.644951 178.296982 -2.064321 -156.480167 0.000000 0.000000 0.000000 -18.844863 -18.531121 -18.981118 0.395367 4.037202 11.181302 0.294028 -1.248641 -9.881809 2.702289 -10.196783 -29.616318 0.000000 0.000000 0.000000 17.863828 14.569202 -18.869213 -0.296638 -3.502243 9.680336 -1.323517 0.078517 -21.738455 -2.596852 10.011809 -29.015091 -6.322458 -1.781203 -26.984806 -0.474469 -0.857988 -1.253176 2.719728 -0.996695 13.772639 -4.361898 0.000175 -0.254365 7.042609 -0.784936 8.591114 3.075292 -0.475403 2.878275 0.000000 0.000000 0.000000 4.228773 -0.296131 -2.571007 6.254815 -10.686468 0.585608 18.529875 21.347184 12.370984 0.000000 0.000000 0.000000 -7.125000 0.000000 0.000000 -6.045695 17.000693 -4.036855 0.000000 0.000000 0.000000 0.691875 4.722211 4.943126 -14.913009 -24.024696 -3.190462 -7.935891 10.078882 57.993860 0.000000 0.000000 0.000000 7.125000 0.000000 0.000000 86.764144 74.894204 -71.041221
9.122130 16.296771 31.644300 178.388908 -1.981312 -156.279907 0.000000 0.000000 0.000000 -18.683876 -18.646766 -19.178011 0.395187 4.036261 11.178676 0.298171 -1.092356 -9.989028 2.712009 -10.213512 -29.670921 0.000000 0.000000 0.000000 17.888256 14.655044 -19.141464 -0.301765 -3.532105 9.763818 -1.330989 0.248750 -21.743633 -2.576525 9.975628 -28.897903 -6.243066 -1.713738 -27.220104 -0.453592 -0.792599 -1.295979 2.720219 -0.968791 13.842226 -4.343619 -0.015354 -0.250594 7.034419 -0.791092 8.468612 3.066879 -0.475410 2.836139 0.000000 0.000000 0.000000 4.216172 -0.297982 -2.929374 6.284494 -10.735868 0.591102 18.816773 20.240889 14.606326 0.000000 0.000000 0.000000 -7.125000 0.000000 0.000000 -5.992331 14.631347 -4.258515 0.000000 0.000000 0.000000 0.692432 4.735515 5.035795 -14.939942 -24.062338 -3.201404 -6.970045 9.251715 59.228759 0.000000 0.000000 0.000000 7.125000 0.000000 0.000000 91.293474 74.514494 -75.268198
9.116962 16.283539 31.644300 178.691135 -1.971290 -156.041883 0.000000 0.000000 0.000000 -18.274695 -18.286208 -19.680913 0.402234 4.071652 11.278270 0.299189 -1.361620 -9.945259 2.714436 -10.217740 -29.684702 0.000000 0.000000 0.000000 18.150394 14.833405 -19.431555 -0.306306 -3.558256 9.836948 -1.329736 0.395087 -21.686241 -2.533932 9.899210 -28.650954 -5.889633 -1.610073 -27.499155 -0.378740 -0.771224 -1.357599 2.608724 -0.944988 13.914807 -4.351449 -0.018642 -0.228592 7.016724 -0.777390 8.325015 3.060224 -0.466562 2.782349 0.000000 0.000000 0.000000 4.205915 -0.293128 -3.459367 6.316518 -10.789110 0.597053 21.071966 15.289612 25.292558 0.000000 0.000000 0.000000 -7.125000 0.000000 0.000000 -5.246864 3.212958 -4.932418 0.000000 0.000000 0.000000 0.660565 4.745693 4.984119 -14.899227 -24.005573 -3.184805 -5.033756 7.338993 60.095273 0.000000 0.000000 0.000000 7.125000 0.000000 0.000000 94.208242 73.788992 -77.534823
